PathFileType	4	(X/Y/Z)	Patient4_TMGait_0pt6_02_right_30.trc.trc
DataRate	CameraRate	NumFrames	NumMarkers	Units	OrigDataRate	OrigDataStartFrame	OrigNumFrames
83.832335329341	83.832335329341	4	33	mm	83.832335329341	53	       141
Frame#	Time	Sacral			L.Shoulder			Chest			R.Shoulder			Neck			R.ASIS			L.ASIS			R.Thigh.Superior			R.Thigh.Lateral			R.Thigh.Inferior			R.Patella			L.Thigh.Superior			L.Thigh.Lateral			L.Thigh.Inferior			L.Patella			L.Shank.Superior			L.Shank.Lateral			L.Shank.Inferior			R.Shank.Superior			R.Shank.Lateral			R.Shank.Inferior			R.Heel			R.Midfoot.Superior			R.Midfoot.Lateral			R.Toe			L.Heel			L.Midfoot.Lateral			L.Midfoot.Superior			L.Toe			L.Elbow			L.Wrist			R.Elbow			R.Wrist			
		X1	Y1	Z1	X2	Y2	Z2	X3	Y3	Z3	X4	Y4	Z4	X5	Y5	Z5	X6	Y6	Z6	X7	Y7	Z7	X8	Y8	Z8	X9	Y9	Z9	X10	Y10	Z10	X11	Y11	Z11	X12	Y12	Z12	X13	Y13	Z13	X14	Y14	Z14	X15	Y15	Z15	X16	Y16	Z16	X17	Y17	Z17	X18	Y18	Z18	X19	Y19	Z19	X20	Y20	Z20	X21	Y21	Z21	X22	Y22	Z22	X23	Y23	Z23	X24	Y24	Z24	X25	Y25	Z25	X26	Y26	Z26	X27	Y27	Z27	X28	Y28	Z28	X29	Y29	Z29	X30	Y30	Z30	X31	Y31	Z31	X32	Y32	Z32	X33	Y33	Z33	

53	36.730285714286	855.053494700805	1025.130497207084	507.469400562440	1068.992897679813	1419.764397519332	293.448557361882	1175.545842579330	1347.100942829188	450.453454189145	1114.615999640309	1440.959640928434	623.178515210869	1086.305734048633	1488.400699469829	440.373307400849	1082.221414262631	938.919406292777	612.278366221459	1052.006740700535	957.482234120964	340.050426972005	1113.741452008127	739.331961767367	583.828385205739	1026.874695740224	638.890810773862	647.042354546050	1096.015153813874	581.724467604969	564.728962263994	1091.443915982233	494.798114048225	571.395932426247	1141.407910281730	799.914949002434	379.041806490606	1117.367672574332	673.624604490885	295.112164843085	1224.578313624495	622.194593329082	363.489535286514	1249.928726287706	534.106476958961	355.035929907897	1191.240202538605	460.798701856419	344.971995752785	1056.336837901806	399.713579547423	299.124862533515	1066.239521439813	268.514979904350	349.337535645915	1065.583565036004	407.033028919913	580.339795210458	995.214815749653	303.150512429367	642.360104811404	1039.156639358842	208.367880549380	579.789847378743	907.790614467453	42.480953262625	547.597324112805	1077.798263058342	98.101333861008	589.396833221232	988.835491783361	36.890816694279	625.715196673787	1197.430603339068	44.871962679882	620.471092602516	890.557022574995	181.682376996376	393.453050030588	946.960514870304	140.529146803232	310.307058945779	1051.295102256777	158.582964637229	325.569540379236	1136.932751891075	53.695768674683	294.132345340464	1001.371731841161	1061.256028754012	208.110522901416	1038.511576716587	803.369540789751	208.493278700447	1110.260033838141	1117.404197377068	788.911762903612	1336.229554719370	1033.637994788818	712.064327501755	
54	36.742214285714	853.859039746709	1025.886460536145	508.509923602920	1068.717229749172	1419.085898312882	293.137669632813	1175.706157455411	1346.191017241733	449.688190094850	1116.330188139310	1440.842909029460	622.523128900561	1086.994784827097	1487.974347571867	439.811726221925	1080.792561228625	938.409735037924	611.950041100430	1049.660733148250	957.879165840560	339.755546256468	1110.516385229917	738.558577161565	582.979534263299	1023.577181214706	638.760455250626	646.911828672491	1091.727196940053	581.110594913377	564.163354204666	1086.649378991133	494.224777161487	571.051244098996	1139.899528844654	802.706651191200	379.222681480159	1117.704558014480	675.952095438209	295.279802680492	1225.469812817322	626.233273990381	363.866365069399	1252.707963695570	539.288974301074	355.303813259057	1197.276985991486	464.490607120745	345.047992788580	1065.893528812449	396.600935477418	298.957445580207	1082.781838896919	265.798338368558	349.007356112274	1060.300537952852	406.621124403926	580.121852335868	989.514051415131	303.122083382888	642.305568072708	1032.747974592941	208.083499918372	579.659214841565	900.603071689651	42.490403594596	547.678192056287	1070.623413287522	97.979294926260	589.341166354486	981.642885627190	36.893905952147	625.798502359239	1190.240194675299	44.672582968191	620.553401793650	912.111645147774	167.966979806272	392.731447271254	971.220534320109	131.457571979277	309.357262587336	1074.172725235658	156.046194734612	324.987890831865	1166.632812653881	57.441951628799	292.879649330521	997.319715404934	1060.860226350707	209.217022858918	1022.549141211157	801.793266557761	209.869404253442	1118.663585244182	1117.118053870307	787.168690139653	1347.330795509476	1047.934360032891	706.108882016349	
55	36.754142857143	852.794261706949	1026.565765945684	509.296329840188	1068.445166415369	1418.483319569609	292.745964816826	1175.885904114220	1345.271377213552	448.785307216109	1118.050124658388	1440.611152412092	621.774930247818	1087.710634780069	1487.530124297990	439.201270151023	1079.421873627805	937.916142800139	611.424847388311	1047.524221599281	958.098931605281	339.261696813370	1107.310082434243	737.744048542016	582.145339038771	1020.210715438300	638.620006640138	646.757195081414	1087.408154802108	580.466568601288	563.620129940596	1081.803143969474	493.648835335810	570.742254728077	1138.342527755077	804.985450542639	379.282835037062	1117.694752000084	677.765416534081	295.434808396479	1225.744844461551	629.458751719079	364.320535031990	1254.678284025242	543.799050815417	355.789463033673	1202.634931409191	467.717432165358	345.339399058994	1075.500467556444	393.033435595109	298.360053676642	1099.124476095297	263.041373809004	348.609311103187	1054.983132134837	406.213412847147	579.917273980475	983.756352015173	303.096063105975	642.227333992390	1026.323270602031	207.809088911172	579.538367349578	893.426843041630	42.514628680010	547.760326750841	1063.442601845739	97.832662544903	589.241623043798	974.451259901251	36.901052858323	625.874992017227	1183.048532395082	44.468826644010	620.640723187599	933.985644603454	154.470214090789	391.081669062078	995.966992265645	122.689639802903	307.941771905793	1097.002580412533	153.719350606487	324.529759657234	1196.034540487578	61.717083769130	292.518310845509	992.701977226472	1060.766833648934	209.989629729249	1007.685808507842	801.166149707776	211.336845664300	1127.106154445924	1116.741658135489	785.037444888029	1357.476801866139	1061.881290541554	699.916128829339	
56	36.766071428571	851.852775995158	1027.172009849253	509.792910198862	1068.192880175699	1417.967094968796	292.260475287209	1176.074046618038	1344.362812979496	447.753357299000	1119.729829394390	1440.280964475605	620.932836247621	1088.440443663029	1487.081477855665	438.532730284500	1078.118322489258	937.461125158629	610.741239064736	1045.648976025065	958.147566225175	338.576865899919	1104.195623972692	736.908275806952	581.377692956206	1016.809661535658	638.471086876144	646.569502713537	1083.136696362690	579.800855718852	563.120887527999	1076.980629291105	493.064911923530	570.465121104299	1136.769014043915	806.738026862673	379.279859850298	1117.381844785886	679.050473155706	295.587135531506	1225.431601219194	631.818516119754	364.872394789952	1255.860874256326	547.561555796101	356.527267692111	1207.262612686099	470.430791133393	345.871304176623	1085.071369720899	389.129765773801	297.342706691636	1115.010095990414	260.346868465082	348.178900354933	1049.693645705812	405.803143818878	579.717015663882	977.982253741150	303.078418940874	642.115070061781	1019.910090118534	207.542180097855	579.418677566192	886.259572739153	42.554878931020	547.842134461350	1056.255236048061	97.664844319153	589.095514060288	967.260995919634	36.913719704496	625.942077248363	1175.855845926201	44.267274919332	620.733867697720	955.831716233532	141.501316308874	388.550811132333	1020.810855384950	114.464147111452	306.120336792658	1119.411038350107	151.715654946593	324.224512090407	1224.626845717460	66.526645375856	293.116133407504	987.508128136031	1061.017510139168	210.450369771132	993.972001479921	801.321941242972	212.859703251389	1135.555959055510	1116.300277035727	782.518982307196	1366.700821722294	1075.363603969656	693.507463586893	
